<svg xmlns="http://www.w3.org/2000/svg" viewBox="0 0 40 40"><defs><style>.cls-1{fill:none;opacity:0.3;}</style></defs><g id="레이어_2" data-name="레이어 2"><g id="레이어_1-2" data-name="레이어 1"><rect class="cls-1" width="40" height="40"/><path d="M32.63,4H7.37a.84.84,0,0,0-.84.84V35.16a.76.76,0,0,0,0,.21v0a.91.91,0,0,0,.13.26l0,0s0,0,0,0a.55.55,0,0,0,.18.16l.05,0s0,0,0,0a.84.84,0,0,0,.26.07h.06a.9.9,0,0,0,.23,0l.08,0a.91.91,0,0,0,.26-.13L20,26.13l12.11,9.69a.75.75,0,0,0,.25.13.86.86,0,0,0,.27,0h0a1,1,0,0,0,.34-.08h0a1,1,0,0,0,.26-.21l0,0,0,0a.91.91,0,0,0,.13-.26v0a.76.76,0,0,0,0-.21V4.84A.84.84,0,0,0,32.63,4Z"/></g></g></svg>