<svg xmlns="http://www.w3.org/2000/svg" viewBox="0 0 40 40"><defs><style>.cls-1{fill:#231815;}.cls-2{fill:none;opacity:0.3;}</style></defs><g id="레이어_2" data-name="레이어 2"><g id="레이어_1-2" data-name="레이어 1"><path class="cls-1" d="M32.63,36a.82.82,0,0,1-.52-.18L20,26.13,7.89,35.82a.84.84,0,0,1-1.36-.66V4.84A.84.84,0,0,1,7.37,4H32.63a.84.84,0,0,1,.84.84V35.16a.84.84,0,0,1-.47.76A1,1,0,0,1,32.63,36ZM20,24.21a.87.87,0,0,1,.53.18l11.26,9V5.68H8.21V33.41l11.26-9A.87.87,0,0,1,20,24.21Z"/><path class="cls-1" d="M32.63,36a.84.84,0,0,1-.52-.18L20,26.13,7.89,35.82a.84.84,0,0,1-1-1.32L19.47,24.39a.87.87,0,0,1,1.06,0L33.16,34.5a.84.84,0,0,1-.53,1.5Z"/><rect class="cls-2" width="40" height="40"/></g></g></svg>