<svg xmlns="http://www.w3.org/2000/svg" viewBox="0 0 40 40"><defs><style>.cls-1{fill:none;opacity:0.3;}.cls-2{fill:#8e8e8e;}</style></defs><g id="레이어_2" data-name="레이어 2"><g id="레이어_2-2" data-name="레이어 2"><rect class="cls-1" width="40" height="40"/><path class="cls-2" d="M16.8,30.6A13.8,13.8,0,1,1,30.6,16.8,13.81,13.81,0,0,1,16.8,30.6ZM16.8,5A11.8,11.8,0,1,0,28.6,16.8,11.81,11.81,0,0,0,16.8,5Z"/><path class="cls-2" d="M36,37a1,1,0,0,1-.71-.29l-9.95-10a1,1,0,0,1,1.41-1.41l10,10a1,1,0,0,1,0,1.42A1,1,0,0,1,36,37Z"/></g></g></svg>